<?xml version="1.0" encoding="utf-8" standalone="no"?>
<!DOCTYPE svg PUBLIC "-//W3C//DTD SVG 1.1//EN"
  "http://www.w3.org/Graphics/SVG/1.1/DTD/svg11.dtd">
<svg xmlns:xlink="http://www.w3.org/1999/xlink" width="481.145501pt" height="454.430625pt" viewBox="0 0 481.145501 454.430625" xmlns="http://www.w3.org/2000/svg" version="1.1">
 <metadata>
  <rdf:RDF xmlns:dc="http://purl.org/dc/elements/1.1/" xmlns:cc="http://creativecommons.org/ns#" xmlns:rdf="http://www.w3.org/1999/02/22-rdf-syntax-ns#">
   <cc:Work>
    <dc:type rdf:resource="http://purl.org/dc/dcmitype/StillImage"/>
    <dc:date>2026-07-22T04:14:55.784416</dc:date>
    <dc:format>image/svg+xml</dc:format>
    <dc:creator>
     <cc:Agent>
      <dc:title>Matplotlib v3.10.3, https://matplotlib.org/</dc:title>
     </cc:Agent>
    </dc:creator>
   </cc:Work>
  </rdf:RDF>
 </metadata>
 <defs>
  <style type="text/css">*{stroke-linejoin: round; stroke-linecap: butt}</style>
 </defs>
 <g id="figure_1">
  <g id="patch_1">
   <path d="M 0 454.430625 
L 481.145501 454.430625 
L 481.145501 -0 
L 0 -0 
z
" style="fill: #0c0f0e"/>
  </g>
  <g id="axes_1">
   <g id="patch_2">
    <path d="M 85.267555 398.149375 
L 463.145501 398.149375 
L 463.145501 36.349375 
L 85.267555 36.349375 
z
" style="fill: #111513"/>
   </g>
   <g id="patch_3">
    <path d="M 167.463145 244.327486 
L 160.274863 257.330111 
L 145.352577 251.615927 
L 136.718991 279.086819 
L 147.083593 283.716983 
L 136.548455 289.391729 
L 134.770536 300.25515 
L 154.165279 294.659278 
L 155.128802 310.707124 
L 134.57232 376.658319 
L 130.473523 365.94291 
L 107.463043 305.78601 
L 107.462837 305.786134 
L 107.462755 305.785969 
L 119.464565 292.194967 
L 116.648499 289.85536 
L 127.558823 270.57472 
L 135.925963 239.452162 
L 141.826646 229.008686 
L 142.965036 228.581274 
L 156.77026 228.658003 
L 160.569072 221.429212 
L 171.637144 220.886707 
L 172.268134 237.771267 
L 166.674407 244.046065 
z
" clip-path="url(#p121cc35fb1)" style="fill: #1a221e; stroke: #454b46; stroke-width: 0.7"/>
   </g>
   <g id="patch_4">
    <path d="M 171.637144 220.886707 
L 160.569072 221.429212 
L 156.77026 228.658003 
L 142.965036 228.581274 
L 157.657095 194.979471 
L 178.175212 165.912994 
L 178.951203 164.475115 
L 197.505974 166.5781 
L 204.252983 182.7549 
L 181.758689 198.301824 
z
" clip-path="url(#p121cc35fb1)" style="fill: #1a221e; stroke: #454b46; stroke-width: 0.7"/>
   </g>
   <g id="patch_5">
    <path d="M 167.463145 244.327486 
L 166.674407 244.046065 
L 172.268134 237.771267 
L 171.637144 220.886707 
L 181.758689 198.301824 
L 204.252983 182.7549 
L 197.505974 166.5781 
L 178.951203 164.475115 
L 175.099093 132.913429 
L 185.195103 115.937166 
L 196.241848 106.899599 
L 207.290738 97.862032 
L 209.522676 74.85081 
L 223.023089 82.873661 
L 268.440119 71.398431 
L 290.39294 79.165479 
L 324.330492 79.036484 
L 371.798282 63.557832 
L 394.026088 64.255981 
L 440.950301 57.840431 
L 419.807546 83.582452 
L 397.227985 93.773301 
L 401.116314 123.907792 
L 385.531068 173.77917 
L 294.206685 216.709531 
L 213.423794 260.673749 
z
" clip-path="url(#p121cc35fb1)" style="fill: #1a221e; stroke: #454b46; stroke-width: 0.7"/>
   </g>
   <g id="matplotlib.axis_1">
    <g id="xtick_1">
     <g id="line2d_1">
      <defs>
       <path id="m12e2a58820" d="M 0 0 
L 0 3.5 
" style="stroke: #858981; stroke-width: 0.8"/>
      </defs>
      <g>
       <use xlink:href="#m12e2a58820" x="96.513117" y="398.149375" style="fill: #858981; stroke: #858981; stroke-width: 0.8"/>
      </g>
     </g>
     <g id="text_1">
      <text style="font-size: 10px; font-family: 'Consolas'; text-anchor: middle; fill: #858981" x="96.513117" y="412.049375" transform="rotate(-0 96.513117 412.049375)">34</text>
     </g>
    </g>
    <g id="xtick_2">
     <g id="line2d_2">
      <g>
       <use xlink:href="#m12e2a58820" x="179.017083" y="398.149375" style="fill: #858981; stroke: #858981; stroke-width: 0.8"/>
      </g>
     </g>
     <g id="text_2">
      <text style="font-size: 10px; font-family: 'Consolas'; text-anchor: middle; fill: #858981" x="179.017083" y="412.049375" transform="rotate(-0 179.017083 412.049375)">36</text>
     </g>
    </g>
    <g id="xtick_3">
     <g id="line2d_3">
      <g>
       <use xlink:href="#m12e2a58820" x="261.521048" y="398.149375" style="fill: #858981; stroke: #858981; stroke-width: 0.8"/>
      </g>
     </g>
     <g id="text_3">
      <text style="font-size: 10px; font-family: 'Consolas'; text-anchor: middle; fill: #858981" x="261.521048" y="412.049375" transform="rotate(-0 261.521048 412.049375)">38</text>
     </g>
    </g>
    <g id="xtick_4">
     <g id="line2d_4">
      <g>
       <use xlink:href="#m12e2a58820" x="344.025014" y="398.149375" style="fill: #858981; stroke: #858981; stroke-width: 0.8"/>
      </g>
     </g>
     <g id="text_4">
      <text style="font-size: 10px; font-family: 'Consolas'; text-anchor: middle; fill: #858981" x="344.025014" y="412.049375" transform="rotate(-0 344.025014 412.049375)">40</text>
     </g>
    </g>
    <g id="xtick_5">
     <g id="line2d_5">
      <g>
       <use xlink:href="#m12e2a58820" x="426.528979" y="398.149375" style="fill: #858981; stroke: #858981; stroke-width: 0.8"/>
      </g>
     </g>
     <g id="text_5">
      <text style="font-size: 10px; font-family: 'Consolas'; text-anchor: middle; fill: #858981" x="426.528979" y="412.049375" transform="rotate(-0 426.528979 412.049375)">42</text>
     </g>
    </g>
    <g id="text_6">
     <text style="font-size: 10px; font-family: 'Consolas'; text-anchor: middle; fill: #d3d0c8" x="274.206528" y="425.00875" transform="rotate(-0 274.206528 425.00875)">longitude</text>
    </g>
   </g>
   <g id="matplotlib.axis_2">
    <g id="ytick_1">
     <g id="line2d_6">
      <defs>
       <path id="m4b53e943cc" d="M 0 0 
L -3.5 0 
" style="stroke: #858981; stroke-width: 0.8"/>
      </defs>
      <g>
       <use xlink:href="#m4b53e943cc" x="85.267555" y="397.33901" style="fill: #858981; stroke: #858981; stroke-width: 0.8"/>
      </g>
     </g>
     <g id="text_7">
      <text style="font-size: 10px; font-family: 'Consolas'; text-anchor: end; fill: #858981" x="78.267555" y="400.78901" transform="rotate(-0 78.267555 400.78901)">29</text>
     </g>
    </g>
    <g id="ytick_2">
     <g id="line2d_7">
      <g>
       <use xlink:href="#m4b53e943cc" x="85.267555" y="356.087028" style="fill: #858981; stroke: #858981; stroke-width: 0.8"/>
      </g>
     </g>
     <g id="text_8">
      <text style="font-size: 10px; font-family: 'Consolas'; text-anchor: end; fill: #858981" x="78.267555" y="359.537028" transform="rotate(-0 78.267555 359.537028)">30</text>
     </g>
    </g>
    <g id="ytick_3">
     <g id="line2d_8">
      <g>
       <use xlink:href="#m4b53e943cc" x="85.267555" y="314.835045" style="fill: #858981; stroke: #858981; stroke-width: 0.8"/>
      </g>
     </g>
     <g id="text_9">
      <text style="font-size: 10px; font-family: 'Consolas'; text-anchor: end; fill: #858981" x="78.267555" y="318.285045" transform="rotate(-0 78.267555 318.285045)">31</text>
     </g>
    </g>
    <g id="ytick_4">
     <g id="line2d_9">
      <g>
       <use xlink:href="#m4b53e943cc" x="85.267555" y="273.583062" style="fill: #858981; stroke: #858981; stroke-width: 0.8"/>
      </g>
     </g>
     <g id="text_10">
      <text style="font-size: 10px; font-family: 'Consolas'; text-anchor: end; fill: #858981" x="78.267555" y="277.033062" transform="rotate(-0 78.267555 277.033062)">32</text>
     </g>
    </g>
    <g id="ytick_5">
     <g id="line2d_10">
      <g>
       <use xlink:href="#m4b53e943cc" x="85.267555" y="232.331079" style="fill: #858981; stroke: #858981; stroke-width: 0.8"/>
      </g>
     </g>
     <g id="text_11">
      <text style="font-size: 10px; font-family: 'Consolas'; text-anchor: end; fill: #858981" x="78.267555" y="235.781079" transform="rotate(-0 78.267555 235.781079)">33</text>
     </g>
    </g>
    <g id="ytick_6">
     <g id="line2d_11">
      <g>
       <use xlink:href="#m4b53e943cc" x="85.267555" y="191.079096" style="fill: #858981; stroke: #858981; stroke-width: 0.8"/>
      </g>
     </g>
     <g id="text_12">
      <text style="font-size: 10px; font-family: 'Consolas'; text-anchor: end; fill: #858981" x="78.267555" y="194.529096" transform="rotate(-0 78.267555 194.529096)">34</text>
     </g>
    </g>
    <g id="ytick_7">
     <g id="line2d_12">
      <g>
       <use xlink:href="#m4b53e943cc" x="85.267555" y="149.827114" style="fill: #858981; stroke: #858981; stroke-width: 0.8"/>
      </g>
     </g>
     <g id="text_13">
      <text style="font-size: 10px; font-family: 'Consolas'; text-anchor: end; fill: #858981" x="78.267555" y="153.277114" transform="rotate(-0 78.267555 153.277114)">35</text>
     </g>
    </g>
    <g id="ytick_8">
     <g id="line2d_13">
      <g>
       <use xlink:href="#m4b53e943cc" x="85.267555" y="108.575131" style="fill: #858981; stroke: #858981; stroke-width: 0.8"/>
      </g>
     </g>
     <g id="text_14">
      <text style="font-size: 10px; font-family: 'Consolas'; text-anchor: end; fill: #858981" x="78.267555" y="112.025131" transform="rotate(-0 78.267555 112.025131)">36</text>
     </g>
    </g>
    <g id="ytick_9">
     <g id="line2d_14">
      <g>
       <use xlink:href="#m4b53e943cc" x="85.267555" y="67.323148" style="fill: #858981; stroke: #858981; stroke-width: 0.8"/>
      </g>
     </g>
     <g id="text_15">
      <text style="font-size: 10px; font-family: 'Consolas'; text-anchor: end; fill: #858981" x="78.267555" y="70.773148" transform="rotate(-0 78.267555 70.773148)">37</text>
     </g>
    </g>
    <g id="text_16">
     <text style="font-size: 10px; font-family: 'Consolas'; text-anchor: middle; fill: #d3d0c8" x="61.269117" y="217.249375" transform="rotate(-90 61.269117 217.249375)">latitude</text>
    </g>
   </g>
   <g id="patch_6">
    <path d="M 85.267555 398.149375 
L 85.267555 36.349375 
" style="fill: none; stroke: #454b46; stroke-width: 0.8; stroke-linejoin: miter; stroke-linecap: square"/>
   </g>
   <g id="patch_7">
    <path d="M 85.267555 398.149375 
L 463.145501 398.149375 
" style="fill: none; stroke: #454b46; stroke-width: 0.8; stroke-linejoin: miter; stroke-linecap: square"/>
   </g>
   <g id="text_17">
    <text style="font-size: 8px; font-family: 'Consolas'; text-anchor: start; fill: #5eb8c9" x="146.015496" y="214.229036" transform="rotate(-0 146.015496 214.229036)">south cluster</text>
   </g>
   <g id="text_18">
    <text style="font-size: 12px; font-family: 'Consolas'; text-anchor: start; fill: #f0ede4" x="85.267555" y="26.349375" transform="rotate(-0 85.267555 26.349375)">Smoke: Lebanon theater + points</text>
   </g>
   <g id="patch_8">
    <path d="M 146.015496 228.205881 
L 158.391091 228.205881 
L 158.391091 215.830286 
L 146.015496 215.830286 
L 146.015496 228.205881 
z
" clip-path="url(#p121cc35fb1)" style="fill: none; stroke-dasharray: 4.44,1.92; stroke-dashoffset: 0; stroke: #5eb8c9; stroke-width: 1.2; stroke-linejoin: miter"/>
   </g>
   <g id="line2d_15">
    <defs>
     <path id="mc761112df9" d="M 0 3.5 
C 0.928211 3.5 1.81853 3.131218 2.474874 2.474874 
C 3.131218 1.81853 3.5 0.928211 3.5 0 
C 3.5 -0.928211 3.131218 -1.81853 2.474874 -2.474874 
C 1.81853 -3.131218 0.928211 -3.5 0 -3.5 
C -0.928211 -3.5 -1.81853 -3.131218 -2.474874 -2.474874 
C -3.131218 -1.81853 -3.5 -0.928211 -3.5 0 
C -3.5 0.928211 -3.131218 1.81853 -2.474874 2.474874 
C -1.81853 3.131218 -0.928211 3.5 0 3.5 
z
" style="stroke: #f0a33a"/>
    </defs>
    <g clip-path="url(#p121cc35fb1)">
     <use xlink:href="#mc761112df9" x="158.465345" y="195.460057" style="fill: #f0a33a; stroke: #f0a33a"/>
    </g>
   </g>
   <g id="line2d_16">
    <g clip-path="url(#p121cc35fb1)">
     <use xlink:href="#mc761112df9" x="152.203294" y="222.018084" style="fill: #f0a33a; stroke: #f0a33a"/>
    </g>
   </g>
   <g id="text_19">
    <text style="font-size: 8px; font-family: 'Consolas'; text-anchor: start; fill: #d3d0c8" x="164.465345" y="190.460057" transform="rotate(-0 164.465345 190.460057)">Beirut</text>
   </g>
   <g id="text_20">
    <text style="font-size: 8px; font-family: 'Consolas'; text-anchor: start; fill: #d3d0c8" x="158.203294" y="217.018084" transform="rotate(-0 158.203294 217.018084)">sample village</text>
   </g>
  </g>
  <g id="text_21">
   <text style="font-size: 8px; font-family: 'Consolas'; text-anchor: start; fill: #858981" x="18" y="434.829375" transform="rotate(-0 18 434.829375)">as of smoke · basemap: Natural Earth 110m</text>
  </g>
 </g>
 <defs>
  <clipPath id="p121cc35fb1">
   <rect x="85.267555" y="36.349375" width="377.877946" height="361.8"/>
  </clipPath>
 </defs>
</svg>
