<?xml version="1.0" encoding="utf-8" standalone="no"?>
<!DOCTYPE svg PUBLIC "-//W3C//DTD SVG 1.1//EN"
  "http://www.w3.org/Graphics/SVG/1.1/DTD/svg11.dtd">
<svg xmlns:xlink="http://www.w3.org/1999/xlink" width="478.96525pt" height="404.540125pt" viewBox="0 0 478.96525 404.540125" xmlns="http://www.w3.org/2000/svg" version="1.1">
 <metadata>
  <rdf:RDF xmlns:dc="http://purl.org/dc/elements/1.1/" xmlns:cc="http://creativecommons.org/ns#" xmlns:rdf="http://www.w3.org/1999/02/22-rdf-syntax-ns#">
   <cc:Work>
    <dc:type rdf:resource="http://purl.org/dc/dcmitype/StillImage"/>
    <dc:date>2026-07-24T04:02:35.857321</dc:date>
    <dc:format>image/svg+xml</dc:format>
    <dc:creator>
     <cc:Agent>
      <dc:title>Matplotlib v3.10.3, https://matplotlib.org/</dc:title>
     </cc:Agent>
    </dc:creator>
   </cc:Work>
  </rdf:RDF>
 </metadata>
 <defs>
  <style type="text/css">*{stroke-linejoin: round; stroke-linecap: butt}</style>
 </defs>
 <g id="figure_1">
  <g id="patch_1">
   <path d="M 0 404.540125 
L 478.96525 404.540125 
L 478.96525 0 
L 0 0 
z
" style="fill: #0c0f0e"/>
  </g>
  <g id="axes_1">
   <g id="patch_2">
    <path d="M 68.67775 351.386875 
L 386.94025 351.386875 
L 386.94025 33.124375 
L 68.67775 33.124375 
z
" style="fill: #111513"/>
   </g>
   <g id="patch_3">
    <path d="M 2609.788816 -252.360473 
L 2631.368029 -259.418351 
L 2631.368029 -247.847223 
L 2612.804269 -246.982853 
z
" clip-path="url(#p03f102316e)" style="fill: #1a221e; stroke: #454b46; stroke-width: 0.7"/>
   </g>
   <g id="patch_4">
    <path d="M 415.400366 165.773307 
L 407.68504 175.812796 
L 391.272514 178.602672 
L 374.446923 196.078161 
L 389.834069 212.144323 
L 388.167931 223.547262 
L 406.651703 243.484376 
L 406.651415 243.484562 
L 396.543702 250.307738 
L 393.638423 254.61449 
L 386.149926 253.457978 
L 374.515671 243.175306 
L 369.756631 242.607546 
L 359.115982 238.684029 
L 353.933703 231.737426 
L 338.144904 228.195706 
L 327.879025 230.854095 
L 324.912751 227.707528 
L 301.862589 219.590649 
L 276.939758 216.850714 
L 262.631065 213.956658 
L 260.566489 215.956058 
L 238.982045 201.65114 
L 219.668252 195.265406 
L 205.047475 185.320042 
L 217.366774 182.614472 
L 231.414 168.455854 
L 221.946876 161.757105 
L 246.899163 154.847085 
L 246.451057 151.146267 
L 231.254666 153.874691 
L 231.789177 146.354724 
L 240.515292 141.627849 
L 256.897481 140.386676 
L 259.561102 134.741359 
L 255.820332 125.406618 
L 262.695801 116.5425 
L 262.496904 111.571849 
L 237.542889 106.062996 
L 227.650394 106.245828 
L 217.202394 98.318197 
L 204.213018 100.999084 
L 182.71249 95.046797 
L 183.081438 91.716163 
L 177.059387 84.375269 
L 163.560875 83.555557 
L 162.158523 78.300501 
L 166.386555 74.872932 
L 155.568491 65.287932 
L 138.0143 66.923429 
L 132.872955 66.073093 
L 128.596421 69.923477 
L 122.274374 69.239077 
L 122.274001 69.239043 
L 118.110315 58.398277 
L 114.135132 52.778845 
L 117.392904 51.197114 
L 131.052443 51.784613 
L 137.639867 48.082357 
L 132.763612 43.568718 
L 121.348044 40.58951 
L 122.366331 37.531989 
L 115.477099 34.443878 
L 104.863756 23.360302 
L 108.491644 18.793285 
L 106.833852 10.846406 
L 90.283948 6.809094 
L 81.401004 8.829926 
L 78.996108 4.627286 
L 61.17334 0.381766 
L 55.731949 -9.609577 
L 54.288493 -17.818922 
L 46.131645 -21.717129 
L 53.385677 -27.089857 
L 48.365662 -42.878911 
L 60.411372 -52.634249 
L 57.862242 -55.589096 
L 57.862361 -55.589147 
L 77.103242 -64.945336 
L 59.366913 -72.994483 
L 59.366879 -72.9945 
L 95.613372 -94.60432 
L 111.338316 -104.383528 
L 117.705276 -113.017143 
L 92.646844 -124.61556 
L 99.56758 -135.647063 
L 84.327293 -148.24584 
L 95.724137 -162.759084 
L 76.034845 -182.029302 
L 91.65742 -194.793846 
L 65.731181 -206.073814 
L 68.202557 -217.92679 
L 81.87464 -219.486666 
L 110.678954 -226.278201 
L 110.679597 -226.278354 
L 128.144082 -232.166887 
L 155.953961 -221.932885 
L 202.313465 -217.903818 
L 266.277118 -198.756942 
L 279.270523 -190.711165 
L 280.389181 -179.444164 
L 261.596119 -170.549743 
L 233.953328 -166.035664 
L 158.378851 -178.902949 
L 145.948499 -176.75163 
L 173.548122 -164.353274 
L 174.62825 -156.499351 
L 175.734314 -139.200718 
L 197.528185 -134.038771 
L 210.757071 -129.643701 
L 212.944956 -137.852165 
L 202.747166 -145.127341 
L 213.521722 -151.539315 
L 254.445709 -141.002287 
L 268.702345 -145.127341 
L 257.309225 -157.525358 
L 296.761756 -174.10565 
L 312.386244 -173.129701 
L 328.192886 -167.213066 
L 338.054114 -178.847592 
L 323.937649 -188.939052 
L 332.22534 -199.063524 
L 319.78043 -209.564155 
L 367.133488 -204.133547 
L 376.805621 -194.65288 
L 355.370811 -192.563012 
L 355.486773 -183.142612 
L 368.811984 -177.34651 
L 394.967237 -181.01804 
L 399.108035 -191.815773 
L 434.470723 -199.878818 
L 493.548538 -214.415796 
L 506.317636 -213.582388 
L 489.627646 -203.309281 
L 510.627215 -201.543771 
L 522.755048 -207.327345 
L 554.48548 -207.79492 
L 579.624493 -214.812608 
L 598.913571 -204.615004 
L 618.151862 -215.826139 
L 600.413129 -225.633195 
L 609.216134 -231.219717 
L 659.223976 -226.096876 
L 682.65546 -220.805677 
L 744.006397 -201.464374 
L 755.323677 -210.323245 
L 738.119896 -219.274039 
L 737.625234 -222.865158 
L 717.223592 -224.526217 
L 722.804698 -232.552526 
L 713.750468 -245.759743 
L 713.238201 -251.178331 
L 744.478713 -266.507919 
L 755.589121 -281.893879 
L 768.178096 -285.222769 
L 812.99792 -280.758461 
L 816.527417 -271.342123 
L 800.480216 -257.611466 
L 811.009965 -252.214716 
L 816.457163 -240.380599 
L 812.611265 -217.183156 
L 831.286672 -206.806614 
L 824.021314 -195.506602 
L 790.862763 -171.460854 
L 810.212615 -168.966726 
L 816.946237 -175.061114 
L 835.571704 -179.408275 
L 840.066654 -187.785181 
L 854.71841 -195.846364 
L 844.853288 -205.470758 
L 852.751954 -216.647019 
L 834.240588 -218.039926 
L 830.169367 -227.455248 
L 843.677409 -244.453851 
L 821.691904 -258.257979 
L 851.989817 -269.668367 
L 848.069771 -281.706138 
L 856.513038 -282.090423 
L 865.409152 -272.704896 
L 858.73021 -256.368549 
L 876.846287 -253.275817 
L 869.127067 -265.483892 
L 897.457847 -272.139641 
L 932.591488 -273.035855 
L 963.875676 -263.384545 
L 948.821013 -277.483743 
L 947.13456 -295.5189 
L 976.572318 -298.935143 
L 1017.290619 -298.18875 
L 1053.976128 -300.405922 
L 1040.217369 -309.256159 
L 1059.808457 -320.374355 
L 1079.257851 -320.839898 
L 1112.172457 -329.237796 
L 1156.874457 -331.49492 
L 1162.522431 -336.131226 
L 1206.974053 -337.702224 
L 1220.825413 -333.901357 
L 1258.819353 -342.897521 
L 1289.919863 -342.616333 
L 1294.586302 -349.922996 
L 1310.762163 -357.128764 
L 1350.72713 -364.076028 
L 1379.760796 -358.590571 
L 1356.709788 -354.417777 
L 1395.055848 -351.824107 
L 1399.624439 -343.458035 
L 1415.094028 -347.577672 
L 1464.584862 -347.351672 
L 1502.746737 -339.094453 
L 1516.334853 -332.752904 
L 1512.123292 -323.952438 
L 1493.396422 -318.942681 
L 1448.908572 -309.544965 
L 1436.190769 -304.521666 
L 1457.182551 -302.151626 
L 1482.223546 -297.881152 
L 1497.465441 -301.083923 
L 1506.099835 -290.217628 
L 1513.535497 -294.616253 
L 1540.604908 -297.290505 
L 1594.921313 -294.495043 
L 1599.046367 -286.577078 
L 1669.82016 -284.058403 
L 1670.786967 -296.988832 
L 1706.713894 -294.025775 
L 1733.739797 -294.118714 
L 1761.076853 -285.200931 
L 1768.869375 -274.366632 
L 1758.854771 -267.278182 
L 1780.117246 -253.955849 
L 1806.739396 -247.081887 
L 1823.074388 -264.845505 
L 1850.230982 -257.229551 
L 1879.082324 -261.780535 
L 1911.850157 -256.572881 
L 1924.318937 -261.319732 
L 1952.010145 -258.946306 
L 1939.788865 -274.662379 
L 1962.139357 -281.996299 
L 2115.03791 -271.00253 
L 2129.447414 -260.954069 
L 2173.762419 -248.016867 
L 2242.120803 -251.219638 
L 2275.824632 -248.431624 
L 2289.918244 -241.431881 
L 2287.858849 -229.052485 
L 2308.712999 -224.23284 
L 2331.37295 -227.699192 
L 2361.394754 -228.142559 
L 2393.354572 -224.82044 
L 2425.439834 -226.694465 
L 2454.929224 -211.646574 
L 2475.90831 -217.06093 
L 2462.218282 -227.88067 
L 2469.755855 -235.401653 
L 2523.766694 -230.668345 
L 2558.980747 -231.681029 
L 2607.66763 -223.601732 
L 2631.368029 -216.214589 
L 2631.368029 -148.771261 
L 2631.246311 -148.6802 
L 2609.482404 -141.241661 
L 2587.54396 -142.482207 
L 2602.809049 -133.471316 
L 2612.88595 -119.522615 
L 2620.708606 -114.962828 
L 2622.672691 -107.959698 
L 2618.303184 -103.47626 
L 2586.748642 -107.163365 
L 2539.43232 -94.420168 
L 2524.379858 -92.447279 
L 2498.476507 -80.552896 
L 2473.904272 -70.161625 
L 2467.680378 -62.468983 
L 2443.465511 -74.180028 
L 2399.357714 -60.890875 
L 2391.655423 -67.179099 
L 2375.348533 -59.926777 
L 2352.707034 -62.247892 
L 2347.252895 -51.113784 
L 2326.941991 -34.731221 
L 2327.545336 -27.889255 
L 2346.826288 -24.095667 
L 2344.558329 0.549192 
L 2328.842256 1.176407 
L 2321.594674 15.337564 
L 2328.637586 22.626114 
L 2299.033756 31.273543 
L 2293.158766 50.602234 
L 2267.921396 54.731013 
L 2262.846802 71.930562 
L 2238.445718 87.702162 
L 2232.185596 76.039026 
L 2224.936998 51.340671 
L 2215.487988 13.723398 
L 2223.626705 -9.755064 
L 2237.910089 -19.857867 
L 2238.793775 -27.769399 
L 2265.100879 -31.556553 
L 2295.341065 -52.870322 
L 2324.482398 -70.27708 
L 2354.914557 -83.784614 
L 2368.522987 -107.649392 
L 2347.952226 -106.221613 
L 2337.786278 -92.276129 
L 2294.847419 -73.683674 
L 2280.979977 -94.501596 
L 2237.275764 -88.753572 
L 2194.90927 -60.376746 
L 2208.887257 -49.995463 
L 2171.103743 -45.575339 
L 2144.929699 -43.832344 
L 2146.155687 -56.073092 
L 2119.840795 -58.642385 
L 2098.867635 -50.326084 
L 2047.106133 -53.235985 
L 1991.420353 -48.218441 
L 1936.582031 -15.174499 
L 1871.705744 24.751532 
L 1898.377496 26.885245 
L 1906.701584 37.486603 
L 1923.144244 41.250057 
L 1933.977527 32.793416 
L 1952.546451 33.891591 
L 1976.988334 52.515195 
L 1977.562561 66.918266 
L 1964.327411 83.831886 
L 1962.899632 104.047311 
L 1955.262178 131.113505 
L 1929.746836 155.610576 
L 1924.0755 167.320266 
L 1901.09644 187.033073 
L 1878.293778 206.577438 
L 1867.358414 216.578837 
L 1844.800374 226.511674 
L 1834.125038 226.73141 
L 1823.49033 218.502801 
L 1800.768419 230.891677 
L 1798.129803 236.524415 
L 1798.129786 236.524449 
L 1798.129718 236.524584 
L 1798.129583 236.524415 
L 1795.759678 233.562035 
L 1795.759678 233.561628 
L 1795.655837 224.961922 
L 1804.303469 224.505266 
L 1806.738973 204.503314 
L 1802.280504 190.004764 
L 1816.809932 184.025458 
L 1837.35591 187.023085 
L 1848.740972 170.554067 
L 1854.542593 152.007608 
L 1861.118776 145.812154 
L 1870.014907 130.579908 
L 1842.036332 135.570331 
L 1827.360605 142.24846 
L 1801.638393 142.228654 
L 1794.782765 126.323028 
L 1774.730958 114.288084 
L 1745.267671 108.876437 
L 1739.004942 92.294165 
L 1733.108639 81.898205 
L 1726.764414 74.612685 
L 1716.301535 57.539189 
L 1701.435662 51.305205 
L 1676.097549 46.264553 
L 1653.654592 46.722885 
L 1632.617728 49.775581 
L 1618.634561 58.197941 
L 1627.923424 62.221253 
L 1628.133528 71.567946 
L 1618.719052 76.99466 
L 1603.437543 94.949913 
L 1603.591105 102.399236 
L 1579.734673 113.09658 
L 1559.412545 106.705124 
L 1539.214625 108.116212 
L 1530.35093 102.44386 
L 1520.199474 100.614596 
L 1495.403507 112.545004 
L 1473.116515 115.348372 
L 1457.555172 119.54402 
L 1436.232227 116.787443 
L 1420.534404 116.963724 
L 1410.25874 108.31042 
L 1393.679092 100.174564 
L 1376.712772 97.944644 
L 1355.297583 100.157229 
L 1339.299221 103.29506 
L 1315.249156 96.174885 
L 1312.021162 83.489246 
L 1292.117398 79.139444 
L 1276.750262 77.156229 
L 1257.785863 70.158517 
L 1240.251783 87.703093 
L 1247.125271 97.667316 
L 1230.670389 109.455742 
L 1206.195664 105.199658 
L 1189.299464 104.590676 
L 1177.984504 96.68314 
L 1160.32168 96.433389 
L 1145.602073 91.238244 
L 1119.852521 99.200884 
L 1087.55057 113.781556 
L 1069.702426 116.715716 
L 1063.078266 118.107556 
L 1054.095595 107.752276 
L 1032.289755 110.017628 
L 1025.082972 102.832276 
L 1013.246603 99.546436 
L 1005.099388 89.764164 
L 995.75278 86.718036 
L 971.425708 91.068532 
L 948.105549 81.315141 
L 939.084381 90.178836 
L 901.254414 47.185229 
L 879.657645 34.106198 
L 885.852269 28.798646 
L 843.423815 44.773968 
L 827.186655 45.739589 
L 828.588991 36.499701 
L 806.846143 30.726318 
L 789.172095 34.846294 
L 783.841808 17.300397 
L 753.41896 13.651958 
L 738.198784 20.675029 
L 695.838892 26.924181 
L 687.571922 31.105981 
L 624.225258 36.996851 
L 616.462802 42.773942 
L 628.684082 54.370157 
L 612.432499 58.771829 
L 615.602867 63.383893 
L 599.355651 71.630413 
L 626.788338 83.27342 
L 622.546322 91.290741 
L 598.767763 90.560701 
L 593.849507 95.584372 
L 572.198143 86.811873 
L 545.360149 87.151974 
L 527.397956 94.293242 
L 507.35314 87.445012 
L 470.039334 75.723269 
L 443.595173 76.161557 
L 408.649511 94.573957 
L 406.541174 106.938252 
L 389.132198 97.120565 
L 375.624935 115.720164 
L 380.569447 119.173092 
L 370.797671 132.003252 
L 385.166783 143.486129 
L 397.728164 143.013475 
L 408.520039 154.324355 
L 406.802031 163.035742 
z
" clip-path="url(#p03f102316e)" style="fill: #1a221e; stroke: #454b46; stroke-width: 0.7"/>
   </g>
   <g id="patch_5">
    <path d="M 1171.722418 -420.392916 
L 1208.343513 -424.215452 
L 1241.235519 -415.693042 
L 1280.219374 -399.325547 
L 1276.039724 -384.103204 
L 1239.104007 -381.991498 
L 1191.951217 -386.876235 
L 1163.854225 -393.338911 
L 1150.861666 -405.48181 
L 1127.765119 -408.828137 
z
" clip-path="url(#p03f102316e)" style="fill: #1a221e; stroke: #454b46; stroke-width: 0.7"/>
   </g>
   <g id="patch_6">
    <path d="M 1325.100481 -390.880671 
L 1368.008615 -381.265927 
L 1362.981421 -374.385194 
L 1267.547871 -367.852517 
L 1298.472829 -390.079936 
L 1312.379038 -391.983078 
z
" clip-path="url(#p03f102316e)" style="fill: #1a221e; stroke: #454b46; stroke-width: 0.7"/>
   </g>
   <g id="patch_7">
    <path d="M 1934.42521 -337.647375 
L 1979.126533 -336.904706 
L 2040.318762 -327.927926 
L 2027.007856 -315.356134 
L 1964.604875 -315.824724 
L 1936.530568 -311.826129 
L 1902.993657 -322.833102 
L 1912.090716 -334.47169 
z
" clip-path="url(#p03f102316e)" style="fill: #1a221e; stroke: #454b46; stroke-width: 0.7"/>
   </g>
   <g id="patch_8">
    <path d="M 2093.406725 -324.258088 
L 2135.888674 -319.826367 
L 2116.323233 -313.137099 
L 2089.263133 -314.651131 
L 2057.804663 -321.331681 
L 2061.855653 -326.813922 
z
" clip-path="url(#p03f102316e)" style="fill: #1a221e; stroke: #454b46; stroke-width: 0.7"/>
   </g>
   <g id="patch_9">
    <path d="M 1951.896552 -290.806414 
L 1967.955096 -297.497206 
L 1989.122261 -299.063464 
L 2013.174103 -292.591054 
L 2015.222833 -288.141981 
L 1989.554962 -288.023479 
L 1954.859694 -289.910708 
z
" clip-path="url(#p03f102316e)" style="fill: #1a221e; stroke: #454b46; stroke-width: 0.7"/>
   </g>
   <g id="patch_10">
    <path d="M 343.381592 -413.032418 
L 376.429783 -416.115299 
L 402.150438 -416.320002 
L 405.609494 -411.758674 
L 415.333159 -415.81173 
L 431.289926 -418.603282 
L 456.398214 -414.893171 
L 449.851046 -412.312434 
L 427.124022 -410.080331 
L 411.900342 -408.796091 
L 409.539207 -406.018082 
L 389.752455 -403.219962 
L 371.413543 -407.233219 
L 381.056711 -412.518018 
z
" clip-path="url(#p03f102316e)" style="fill: #1a221e; stroke: #454b46; stroke-width: 0.7"/>
   </g>
   <g id="patch_11">
    <path d="M -31.014609 31.557829 
L -62.144305 31.811965 
L -82.993969 29.889541 
L -79.136881 22.439558 
L -55.775601 16.949157 
L -38.046433 19.914805 
L -30.563201 22.601838 
L -32.369713 27.237518 
z
" clip-path="url(#p03f102316e)" style="fill: #1a221e; stroke: #454b46; stroke-width: 0.7"/>
   </g>
   <g id="patch_12">
    <path d="M 490.008037 -297.239109 
L 530.53858 -312.097092 
L 525.958884 -319.78154 
L 563.823844 -328.719604 
L 619.71277 -339.596275 
L 676.057489 -342.764883 
L 705.050001 -349.040867 
L 737.994961 -351.24018 
L 749.763072 -344.555211 
L 738.393009 -339.287476 
L 678.409889 -330.892676 
L 626.712243 -322.819812 
L 574.124003 -306.706436 
L 548.894996 -290.183669 
L 522.35986 -273.901901 
L 525.804916 -259.839557 
L 558.187364 -245.955677 
L 548.187252 -244.470661 
L 492.870453 -246.669974 
L 488.378245 -254.186454 
L 457.73495 -258.725029 
L 455.26095 -267.868677 
L 472.571061 -271.500949 
L 471.993685 -280.732068 
L 505.571141 -295.169285 
z
" clip-path="url(#p03f102316e)" style="fill: #1a221e; stroke: #454b46; stroke-width: 0.7"/>
   </g>
   <g id="patch_13">
    <path d="M 2003.55489 42.103813 
L 2009.416201 58.420149 
L 2008.983161 75.079837 
L 2015.970361 92.162069 
L 2033.003177 122.146612 
L 2007.944745 116.55738 
L 1997.529097 141.019171 
L 2014.031753 158.368659 
L 2013.554105 170.198883 
L 2000.72921 159.993203 
L 1989.629449 173.096307 
L 1986.495833 158.890051 
L 1988.383706 142.397891 
L 1986.45385 124.130707 
L 1990.370425 111.332932 
L 1991.118393 88.696021 
L 1981.199658 72.053381 
L 1982.697354 48.919574 
L 1998.346185 41.129269 
L 1991.622297 33.285605 
L 1999.156265 30.908709 
z
" clip-path="url(#p03f102316e)" style="fill: #1a221e; stroke: #454b46; stroke-width: 0.7"/>
   </g>
   <g id="patch_14">
    <path d="M -3377.161341 -186.457959 
L -3378.617223 -175.935998 
L -3367.200064 -171.724267 
L -3371.127389 -184.025282 
L -3325.173839 -181.501021 
L -3292.031709 -165.65832 
L -3308.816501 -158.279878 
L -3336.565944 -156.528079 
L -3336.984933 -139.986555 
L -3343.762062 -136.46366 
L -3359.616105 -136.970002 
L -3372.517248 -142.872248 
L -3395.026025 -147.809211 
L -3398.811825 -155.152779 
L -3416.003079 -157.921832 
L -3435.255759 -155.725821 
L -3444.45473 -161.649566 
L -3440.777614 -167.941514 
L -3461.052628 -163.920065 
L -3453.41619 -155.955884 
L -3463.020269 -148.771261 
L -3463.020269 -216.214589 
L -3421.54457 -203.287104 
z
" clip-path="url(#p03f102316e)" style="fill: #1a221e; stroke: #454b46; stroke-width: 0.7"/>
   </g>
   <g id="patch_15">
    <path d="M -3440.907458 -248.876853 
L -3463.020269 -247.847223 
L -3463.020269 -259.418351 
L -3460.851259 -260.127771 
L -3446.503291 -260.09239 
L -3422.017647 -255.24989 
L -3423.467265 -252.935547 
z
" clip-path="url(#p03f102316e)" style="fill: #1a221e; stroke: #454b46; stroke-width: 0.7"/>
   </g>
   <g id="patch_16">
    <path d="M 150.206919 173.00892 
L 154.667233 168.816388 
L 166.702634 172.446121 
L 172.147208 173.114743 
L 174.34415 176.457921 
L 176.898156 176.973523 
L 177.035771 178.437971 
L 185.317723 182.521651 
L 202.58497 181.50597 
L 199.279018 187.545746 
L 180.746762 190.478163 
L 157.766043 200.271794 
L 148.352075 196.828498 
L 152.084939 188.87373 
L 133.585931 183.918739 
L 136.576075 180.673138 
L 152.783051 175.046274 
z
" clip-path="url(#p03f102316e)" style="fill: #1a221e; stroke: #454b46; stroke-width: 0.7"/>
   </g>
   <g id="patch_17">
    <path d="M 122.274374 69.239077 
L 128.596421 69.923477 
L 132.872955 66.073093 
L 138.0143 66.923429 
L 155.568491 65.287932 
L 166.386555 74.872932 
L 162.158523 78.300501 
L 163.560875 83.555557 
L 177.059387 84.375269 
L 183.081438 91.716163 
L 182.71249 95.046797 
L 204.213018 100.999084 
L 217.202394 98.318197 
L 227.650394 106.245828 
L 237.542889 106.062996 
L 262.496904 111.571849 
L 262.695801 116.5425 
L 255.820332 125.406618 
L 259.561102 134.741359 
L 256.897481 140.386676 
L 240.515292 141.627849 
L 231.789177 146.354724 
L 231.254666 153.874691 
L 217.73865 155.228475 
L 206.476186 160.705315 
L 190.627899 161.598076 
L 176.046347 167.908595 
L 176.898156 176.973523 
L 174.34415 176.457921 
L 172.147208 173.114743 
L 166.702634 172.446121 
L 154.667233 168.816388 
L 150.206919 173.00892 
L 147.880539 171.169075 
L 121.565867 166.890307 
L 120.400603 160.577587 
L 104.715036 162.662291 
L 98.43206 171.984843 
L 85.323708 184.496995 
L 77.645388 181.591715 
L 69.68974 184.315467 
L 62.135661 181.196291 
L 66.396908 179.357411 
L 69.354684 173.549459 
L 73.98862 168.151811 
L 72.790988 165.120547 
L 76.331404 163.769811 
L 77.999692 166.113035 
L 87.976172 166.608611 
L 92.45702 165.356739 
L 89.300652 163.640339 
L 90.49654 161.117347 
L 84.585356 156.813659 
L 82.138476 149.736348 
L 75.971852 146.967091 
L 77.187852 141.230444 
L 69.539276 136.675667 
L 62.575693 136.042308 
L 50.098956 130.768004 
L 38.846126 132.442403 
L 34.808813 134.939156 
L 27.666749 134.936532 
L 23.408989 138.893347 
L 10.912141 140.520092 
L 5.13219 143.119179 
L -2.727218 138.982579 
L -13.580274 138.919604 
L -24.05453 137.044852 
L -31.362802 140.670115 
L -32.54293 136.132403 
L -41.942034 131.527348 
L -38.636945 124.702852 
L -33.942641 120.295492 
L -30.247394 121.283172 
L -34.614514 113.6757 
L -19.24213 99.595428 
L -10.841202 97.625332 
L -9.025938 92.876348 
L -17.539714 78.096661 
L -9.447602 77.436605 
L -0.170114 72.848597 
L 12.944366 72.472861 
L 30.045406 73.799524 
L 48.939821 77.862213 
L 62.272125 78.202077 
L 68.637341 80.648517 
L 74.98942 77.697309 
L 79.426524 81.655445 
L 94.703564 80.844485 
L 101.437068 82.480405 
L 102.52622 73.960061 
L 107.741916 70.243381 
z
" clip-path="url(#p03f102316e)" style="fill: #1a221e; stroke: #454b46; stroke-width: 0.7"/>
   </g>
   <g id="matplotlib.axis_1">
    <g id="xtick_1">
     <g id="line2d_1">
      <defs>
       <path id="m3b4bec368c" d="M 0 0 
L 0 3.5 
" style="stroke: #858981; stroke-width: 0.8"/>
      </defs>
      <g>
       <use xlink:href="#m3b4bec368c" x="92.039572" y="351.386875" style="fill: #858981; stroke: #858981; stroke-width: 0.8"/>
      </g>
     </g>
     <g id="text_1">
      <text style="font-size: 10px; font-family: 'Consolas'; text-anchor: middle; fill: #858981" x="92.039572" y="365.286875" transform="rotate(-0 92.039572 365.286875)">30.0</text>
     </g>
    </g>
    <g id="xtick_2">
     <g id="line2d_2">
      <g>
       <use xlink:href="#m3b4bec368c" x="134.361713" y="351.386875" style="fill: #858981; stroke: #858981; stroke-width: 0.8"/>
      </g>
     </g>
     <g id="text_2">
      <text style="font-size: 10px; font-family: 'Consolas'; text-anchor: middle; fill: #858981" x="134.361713" y="365.286875" transform="rotate(-0 134.361713 365.286875)">32.5</text>
     </g>
    </g>
    <g id="xtick_3">
     <g id="line2d_3">
      <g>
       <use xlink:href="#m3b4bec368c" x="176.683854" y="351.386875" style="fill: #858981; stroke: #858981; stroke-width: 0.8"/>
      </g>
     </g>
     <g id="text_3">
      <text style="font-size: 10px; font-family: 'Consolas'; text-anchor: middle; fill: #858981" x="176.683854" y="365.286875" transform="rotate(-0 176.683854 365.286875)">35.0</text>
     </g>
    </g>
    <g id="xtick_4">
     <g id="line2d_4">
      <g>
       <use xlink:href="#m3b4bec368c" x="219.005995" y="351.386875" style="fill: #858981; stroke: #858981; stroke-width: 0.8"/>
      </g>
     </g>
     <g id="text_4">
      <text style="font-size: 10px; font-family: 'Consolas'; text-anchor: middle; fill: #858981" x="219.005995" y="365.286875" transform="rotate(-0 219.005995 365.286875)">37.5</text>
     </g>
    </g>
    <g id="xtick_5">
     <g id="line2d_5">
      <g>
       <use xlink:href="#m3b4bec368c" x="261.328136" y="351.386875" style="fill: #858981; stroke: #858981; stroke-width: 0.8"/>
      </g>
     </g>
     <g id="text_5">
      <text style="font-size: 10px; font-family: 'Consolas'; text-anchor: middle; fill: #858981" x="261.328136" y="365.286875" transform="rotate(-0 261.328136 365.286875)">40.0</text>
     </g>
    </g>
    <g id="xtick_6">
     <g id="line2d_6">
      <g>
       <use xlink:href="#m3b4bec368c" x="303.650277" y="351.386875" style="fill: #858981; stroke: #858981; stroke-width: 0.8"/>
      </g>
     </g>
     <g id="text_6">
      <text style="font-size: 10px; font-family: 'Consolas'; text-anchor: middle; fill: #858981" x="303.650277" y="365.286875" transform="rotate(-0 303.650277 365.286875)">42.5</text>
     </g>
    </g>
    <g id="xtick_7">
     <g id="line2d_7">
      <g>
       <use xlink:href="#m3b4bec368c" x="345.972418" y="351.386875" style="fill: #858981; stroke: #858981; stroke-width: 0.8"/>
      </g>
     </g>
     <g id="text_7">
      <text style="font-size: 10px; font-family: 'Consolas'; text-anchor: middle; fill: #858981" x="345.972418" y="365.286875" transform="rotate(-0 345.972418 365.286875)">45.0</text>
     </g>
    </g>
    <g id="text_8">
     <text style="font-size: 10px; font-family: 'Consolas'; text-anchor: middle; fill: #d3d0c8" x="227.809" y="378.24625" transform="rotate(-0 227.809 378.24625)">longitude</text>
    </g>
   </g>
   <g id="matplotlib.axis_2">
    <g id="ytick_1">
     <g id="line2d_8">
      <defs>
       <path id="m2b9abb78f3" d="M 0 0 
L -3.5 0 
" style="stroke: #858981; stroke-width: 0.8"/>
      </defs>
      <g>
       <use xlink:href="#m2b9abb78f3" x="68.67775" y="316.428787" style="fill: #858981; stroke: #858981; stroke-width: 0.8"/>
      </g>
     </g>
     <g id="text_9">
      <text style="font-size: 10px; font-family: 'Consolas'; text-anchor: end; fill: #858981" x="61.67775" y="319.878787" transform="rotate(-0 61.67775 319.878787)">37.5</text>
     </g>
    </g>
    <g id="ytick_2">
     <g id="line2d_9">
      <g>
       <use xlink:href="#m2b9abb78f3" x="68.67775" y="274.106646" style="fill: #858981; stroke: #858981; stroke-width: 0.8"/>
      </g>
     </g>
     <g id="text_10">
      <text style="font-size: 10px; font-family: 'Consolas'; text-anchor: end; fill: #858981" x="61.67775" y="277.556646" transform="rotate(-0 61.67775 277.556646)">40.0</text>
     </g>
    </g>
    <g id="ytick_3">
     <g id="line2d_10">
      <g>
       <use xlink:href="#m2b9abb78f3" x="68.67775" y="231.784505" style="fill: #858981; stroke: #858981; stroke-width: 0.8"/>
      </g>
     </g>
     <g id="text_11">
      <text style="font-size: 10px; font-family: 'Consolas'; text-anchor: end; fill: #858981" x="61.67775" y="235.234505" transform="rotate(-0 61.67775 235.234505)">42.5</text>
     </g>
    </g>
    <g id="ytick_4">
     <g id="line2d_11">
      <g>
       <use xlink:href="#m2b9abb78f3" x="68.67775" y="189.462364" style="fill: #858981; stroke: #858981; stroke-width: 0.8"/>
      </g>
     </g>
     <g id="text_12">
      <text style="font-size: 10px; font-family: 'Consolas'; text-anchor: end; fill: #858981" x="61.67775" y="192.912364" transform="rotate(-0 61.67775 192.912364)">45.0</text>
     </g>
    </g>
    <g id="ytick_5">
     <g id="line2d_12">
      <g>
       <use xlink:href="#m2b9abb78f3" x="68.67775" y="147.140223" style="fill: #858981; stroke: #858981; stroke-width: 0.8"/>
      </g>
     </g>
     <g id="text_13">
      <text style="font-size: 10px; font-family: 'Consolas'; text-anchor: end; fill: #858981" x="61.67775" y="150.590223" transform="rotate(-0 61.67775 150.590223)">47.5</text>
     </g>
    </g>
    <g id="ytick_6">
     <g id="line2d_13">
      <g>
       <use xlink:href="#m2b9abb78f3" x="68.67775" y="104.818082" style="fill: #858981; stroke: #858981; stroke-width: 0.8"/>
      </g>
     </g>
     <g id="text_14">
      <text style="font-size: 10px; font-family: 'Consolas'; text-anchor: end; fill: #858981" x="61.67775" y="108.268082" transform="rotate(-0 61.67775 108.268082)">50.0</text>
     </g>
    </g>
    <g id="ytick_7">
     <g id="line2d_14">
      <g>
       <use xlink:href="#m2b9abb78f3" x="68.67775" y="62.495941" style="fill: #858981; stroke: #858981; stroke-width: 0.8"/>
      </g>
     </g>
     <g id="text_15">
      <text style="font-size: 10px; font-family: 'Consolas'; text-anchor: end; fill: #858981" x="61.67775" y="65.945941" transform="rotate(-0 61.67775 65.945941)">52.5</text>
     </g>
    </g>
    <g id="text_16">
     <text style="font-size: 10px; font-family: 'Consolas'; text-anchor: middle; fill: #d3d0c8" x="33.682437" y="192.255625" transform="rotate(-90 33.682437 192.255625)">latitude</text>
    </g>
   </g>
   <g id="patch_18">
    <path d="M 68.67775 351.386875 
L 68.67775 33.124375 
" style="fill: none; stroke: #454b46; stroke-width: 0.8; stroke-linejoin: miter; stroke-linecap: square"/>
   </g>
   <g id="patch_19">
    <path d="M 68.67775 351.386875 
L 386.94025 351.386875 
" style="fill: none; stroke: #454b46; stroke-width: 0.8; stroke-linejoin: miter; stroke-linecap: square"/>
   </g>
   <g id="text_17">
    <text style="font-size: 12px; font-family: 'Consolas'; text-anchor: start; fill: #f0ede4" x="68.67775" y="23.124375" transform="rotate(-0 68.67775 23.124375)">Reported Wildberries warehouse strike locations (city-level)</text>
   </g>
   <g id="line2d_15">
    <defs>
     <path id="mbf4862de3d" d="M 0 4 
C 1.060812 4 2.078319 3.578535 2.828427 2.828427 
C 3.578535 2.078319 4 1.060812 4 0 
C 4 -1.060812 3.578535 -2.078319 2.828427 -2.828427 
C 2.078319 -3.578535 1.060812 -4 0 -4 
C -1.060812 -4 -2.078319 -3.578535 -2.828427 -2.828427 
C -3.578535 -2.078319 -4 -1.060812 -4 0 
C -4 1.060812 -3.578535 2.078319 -2.828427 2.828427 
C -2.078319 3.578535 -1.060812 4 0 4 
z
" style="stroke: #f0a33a"/>
    </defs>
    <g clip-path="url(#p03f102316e)">
     <use xlink:href="#mbf4862de3d" x="161.447883" y="190.308807" style="fill: #f0a33a; stroke: #f0a33a"/>
    </g>
   </g>
   <g id="line2d_16">
    <g clip-path="url(#p03f102316e)">
     <use xlink:href="#mbf4862de3d" x="244.060702" y="188.785209" style="fill: #f0a33a; stroke: #f0a33a"/>
    </g>
   </g>
   <g id="line2d_17">
    <g clip-path="url(#p03f102316e)">
     <use xlink:href="#mbf4862de3d" x="294.170117" y="195.726041" style="fill: #f0a33a; stroke: #f0a33a"/>
    </g>
   </g>
   <g id="text_18">
    <text style="font-size: 9px; font-family: 'Consolas'; text-anchor: start; fill: #d3d0c8" x="168.447883" y="184.308807" transform="rotate(-0 168.447883 184.308807)">Simferopol</text>
   </g>
   <g id="text_19">
    <text style="font-size: 9px; font-family: 'Consolas'; text-anchor: start; fill: #d3d0c8" x="251.060702" y="198.785209" transform="rotate(-0 251.060702 198.785209)">Krasnodar</text>
   </g>
   <g id="text_20">
    <text style="font-size: 9px; font-family: 'Consolas'; text-anchor: start; fill: #d3d0c8" x="286.170117" y="187.726041" transform="rotate(-0 286.170117 187.726041)">Nevinnomyssk</text>
   </g>
  </g>
  <g id="text_21">
   <text style="font-size: 8px; font-family: 'Consolas'; text-anchor: start; fill: #858981" x="14.4" y="388.498875" transform="rotate(-0 14.4 388.498875)">as of 2026-07-24 · basemap: Natural Earth 110m · city centroids only (not facility addresses)</text>
  </g>
 </g>
 <defs>
  <clipPath id="p03f102316e">
   <rect x="68.67775" y="33.124375" width="318.2625" height="318.2625"/>
  </clipPath>
 </defs>
</svg>
