<?xml version="1.0" encoding="UTF-8"?>
<svg xmlns="http://www.w3.org/2000/svg" width="760" height="620" viewBox="0 0 760 620" role="img" aria-label="Pilot zones geography in southern Lebanon">
  <defs>
    <style>
      text { font-family: 'IBM Plex Mono', 'Cascadia Mono', Menlo, Consolas, monospace; }
    </style>
  </defs>
  <rect width="760" height="620" fill="#0c0f0e"/>
  <rect x="62" y="70" width="666" height="488" fill="#111513" stroke="#2b302d" stroke-width="1"/>
  <text x="70" y="28" fill="#f0ede4" font-size="13" font-weight="600">Pilot zones geography in southern Lebanon</text>
  <text x="70" y="46" fill="#858981" font-size="10">Froun, Srifa, and Zawtar al-Gharbiyeh — relative placement (schematic)</text>
  <text x="70" y="62" fill="#858981" font-size="10">As of 2026-07-21 · coordinates from OpenStreetMap Nominatim</text>
  <line x1="183.0" y1="550.0" x2="183.0" y2="78.0" stroke="#2b302d" stroke-width="0.6"/>  <text x="183.0" y="568" fill="#858981" font-size="9" text-anchor="middle">35.2°E</text>  <line x1="324.3" y1="550.0" x2="324.3" y2="78.0" stroke="#2b302d" stroke-width="0.6"/>  <text x="324.3" y="568" fill="#858981" font-size="9" text-anchor="middle">35.3°E</text>  <line x1="465.7" y1="550.0" x2="465.7" y2="78.0" stroke="#2b302d" stroke-width="0.6"/>  <text x="465.7" y="568" fill="#858981" font-size="9" text-anchor="middle">35.4°E</text>  <line x1="607.0" y1="550.0" x2="607.0" y2="78.0" stroke="#2b302d" stroke-width="0.6"/>  <text x="607.0" y="568" fill="#858981" font-size="9" text-anchor="middle">35.5°E</text>  <line x1="70.0" y1="508.6" x2="720.0" y2="508.6" stroke="#2b302d" stroke-width="0.6"/>  <text x="60" y="511.6" fill="#858981" font-size="9" text-anchor="end">33.1°N</text>  <line x1="70.0" y1="425.8" x2="720.0" y2="425.8" stroke="#2b302d" stroke-width="0.6"/>  <text x="60" y="428.8" fill="#858981" font-size="9" text-anchor="end">33.2°N</text>  <line x1="70.0" y1="343.0" x2="720.0" y2="343.0" stroke="#2b302d" stroke-width="0.6"/>  <text x="60" y="346.0" fill="#858981" font-size="9" text-anchor="end">33.3°N</text>  <line x1="70.0" y1="260.2" x2="720.0" y2="260.2" stroke="#2b302d" stroke-width="0.6"/>  <text x="60" y="263.2" fill="#858981" font-size="9" text-anchor="end">33.4°N</text>  <line x1="70.0" y1="177.4" x2="720.0" y2="177.4" stroke="#2b302d" stroke-width="0.6"/>  <text x="60" y="180.4" fill="#858981" font-size="9" text-anchor="end">33.5°N</text>  <line x1="70.0" y1="94.6" x2="720.0" y2="94.6" stroke="#2b302d" stroke-width="0.6"/>  <text x="60" y="97.6" fill="#858981" font-size="9" text-anchor="end">33.6°N</text>  <polygon points="70.0,550.0 183.0,550.0 168.9,425.8 176.0,367.8 197.2,301.6 296.1,193.9 380.9,136.0 409.1,78.0 70.0,78.0" fill="#0a1a22" fill-opacity="0.55" stroke="#1a3a44" stroke-width="1"/>  <text x="119.5" y="276.7" fill="#858981" font-size="10" transform="rotate(-75 119.5 276.7)">Mediterranean Sea (schematic)</text>  <text x="712" y="96" fill="#858981" font-size="10" text-anchor="end">Southern Lebanon</text>  <text x="712" y="110" fill="#858981" font-size="9" text-anchor="end">(no administrative boundaries drawn)</text>  <rect x="415.1" y="301.1" width="184.3" height="79.6" fill="#f0a33a" fill-opacity="0.06" stroke="#f0a33a" stroke-opacity="0.45" stroke-width="1" stroke-dasharray="3 2"/>  <text x="507.3" y="293.1" fill="#f0a33a" font-size="9" text-anchor="middle">Pilot-zone cluster</text>  <circle cx="178.0" cy="366.1" r="4.0" fill="#858981" fill-opacity="0.9"/>  <text x="186.0" y="360.1" fill="#d3d0c8" font-size="10" text-anchor="start">Tyre (Sour)</text>  <circle cx="582.3" cy="275.7" r="4.0" fill="#858981" fill-opacity="0.9"/>  <text x="590.3" y="269.7" fill="#d3d0c8" font-size="10" text-anchor="start">Nabatieh</text>  <circle cx="512.0" cy="492.4" r="3.2" fill="#858981" fill-opacity="0.9"/>  <text x="520.0" y="504.4" fill="#d3d0c8" font-size="10" text-anchor="start">Bint Jbeil</text>  <circle cx="430.3" cy="123.8" r="4.0" fill="#858981" fill-opacity="0.9"/>  <text x="438.3" y="117.8" fill="#d3d0c8" font-size="10" text-anchor="start">Sidon (Saida)</text>  <circle cx="505.0" cy="347.4" r="7" fill="none" stroke="#f0a33a" stroke-width="1.5"/>  <circle cx="505.0" cy="347.4" r="3.5" fill="#f0a33a"/>  <text x="515.0" y="351.4" fill="#f0ede4" font-size="11" font-weight="600" text-anchor="start">Froun</text>  <circle cx="464.5" cy="357.5" r="7" fill="none" stroke="#5eb8c9" stroke-width="1.5"/>  <circle cx="464.5" cy="357.5" r="3.5" fill="#5eb8c9"/>  <text x="454.5" y="371.5" fill="#f0ede4" font-size="11" font-weight="600" text-anchor="end">Srifa</text>  <circle cx="550.0" cy="324.3" r="7" fill="none" stroke="#c98bb8" stroke-width="1.5"/>  <circle cx="550.0" cy="324.3" r="3.5" fill="#c98bb8"/>  <text x="560.0" y="316.3" fill="#f0ede4" font-size="11" font-weight="600" text-anchor="start">Zawtar al-Gharbiyeh</text>  <g>
    <line x1="692" y1="151" x2="692" y2="119" stroke="#d3d0c8" stroke-width="1.2"/>
    <polygon points="692,113 687,125 697,125" fill="#d3d0c8"/>
    <text x="692" y="163" fill="#858981" font-size="9" text-anchor="middle">N</text>
  </g>  <g>
    <line x1="112.4" y1="516.9" x2="416.1" y2="516.9" stroke="#d3d0c8" stroke-width="1.5"/>
    <line x1="112.4" y1="512.9" x2="112.4" y2="520.9" stroke="#d3d0c8" stroke-width="1.2"/>
    <line x1="416.1" y1="512.9" x2="416.1" y2="520.9" stroke="#d3d0c8" stroke-width="1.2"/>
    <text x="264.3" y="508.9" fill="#858981" font-size="9" text-anchor="middle">~20 km</text>
  </g>  <rect x="74" y="440" width="248" height="104" fill="#111513" stroke="#454b46" stroke-width="1"/>  <text x="82" y="454" fill="#f0ede4" font-size="10">Legend</text>  <circle cx="90" cy="467" r="5" fill="none" stroke="#f0a33a" stroke-width="1.4"/>  <circle cx="90" cy="467" r="2.5" fill="#f0a33a"/>  <text x="102" y="470" fill="#d3d0c8" font-size="10">Froun (pilot zone)</text>  <circle cx="90" cy="483" r="5" fill="none" stroke="#5eb8c9" stroke-width="1.4"/>  <circle cx="90" cy="483" r="2.5" fill="#5eb8c9"/>  <text x="102" y="486" fill="#d3d0c8" font-size="10">Srifa (pilot zone)</text>  <circle cx="90" cy="499" r="5" fill="none" stroke="#c98bb8" stroke-width="1.4"/>  <circle cx="90" cy="499" r="2.5" fill="#c98bb8"/>  <text x="102" y="502" fill="#d3d0c8" font-size="10">Zawtar al-Gharbiyeh (pilot zone)</text>  <circle cx="90" cy="515" r="3.2" fill="#858981"/>  <text x="102" y="518" fill="#d3d0c8" font-size="10">Reference town / city</text>  <text x="395.0" y="608" fill="#858981" font-size="10" text-anchor="middle">Longitude (°E)</text>  <text x="16" y="314.0" fill="#858981" font-size="10" text-anchor="middle" transform="rotate(-90 16 314.0)">Latitude (°N)</text>  <text x="70" y="592" fill="#858981" font-size="9">Schematic map: places plotted at public geocodes. Not an official basemap; no invented borders or force positions.</text></svg>
